<?xml version="1.0" encoding="utf-8"?>
<!DOCTYPE svg PUBLIC "-//W3C//DTD SVG 1.1//EN" "http://www.w3.org/Graphics/SVG/1.1/DTD/svg11.dtd">
<svg id="Layer_1" version="1.1" xmlns="http://www.w3.org/2000/svg" xmlns:xlink="http://www.w3.org/1999/xlink"
width="400" height="206.31199278629396" viewBox="0 0 400 206.31199278629396"
enable-background="new 0 0 400 206.31199278629396" xml:space="preserve" >
	<g id="svgg">
		<path id="path0" d="M30.839 35.404 C 30.839 35.435,31.102 35.698,31.425 35.990 L 32.011 36.519 31.481 35.933 C 30.987 35.387,30.839 35.264,30.839 35.404 M87.688 99.008 C 87.688 99.355,87.725 99.497,87.771 99.324 C 87.816 99.150,87.816 98.866,87.771 98.693 C 87.725 98.519,87.688 98.661,87.688 99.008 " stroke="none" fill="#000000" fill-rule="evenodd"></path>
		<path id="path1" d="M25.699 31.121 C 22.767 32.641,20.927 38.051,20.828 45.446 C 20.720 53.551,21.184 57.455,23.368 66.808 C 24.292 70.765,24.315 71.190,23.712 73.129 C 22.746 76.232,22.433 79.919,22.962 81.960 C 23.225 82.974,23.344 82.899,23.525 81.605 C 23.733 80.116,24.483 76.898,25.271 74.114 L 26.014 71.491 25.101 67.351 C 22.237 54.367,22.022 50.924,23.455 41.028 C 24.166 36.123,25.110 34.751,27.954 34.493 C 30.474 34.265,31.896 35.676,34.994 41.479 C 39.708 50.308,41.501 53.212,45.312 58.192 C 48.320 62.122,48.992 65.211,48.001 70.544 C 46.502 78.607,33.134 90.053,27.152 88.394 C 26.259 88.147,26.138 88.260,26.700 88.812 L 27.142 89.246 29.666 88.908 C 42.960 87.127,51.080 87.514,63.916 90.544 C 68.465 91.617,68.096 91.611,68.232 90.619 C 68.294 90.171,68.642 88.933,69.006 87.869 C 69.594 86.146,69.662 85.765,69.619 84.400 C 69.593 83.557,69.560 82.496,69.547 82.041 C 69.503 80.502,70.929 79.224,75.407 76.792 L 77.960 75.406 79.772 76.315 C 85.757 79.319,86.667 80.288,86.477 83.456 C 86.354 85.494,86.371 85.654,86.850 87.024 C 87.125 87.813,87.519 89.158,87.724 90.013 L 88.097 91.568 90.622 90.968 C 104.428 87.689,111.792 87.387,125.026 89.555 C 128.327 90.096,128.017 90.112,128.913 89.346 C 129.850 88.543,129.921 88.140,129.081 88.380 C 123.267 90.048,109.818 78.844,108.184 70.970 C 106.987 65.205,107.692 62.208,111.369 57.433 C 114.575 53.271,116.412 50.253,121.190 41.298 C 124.442 35.203,126.337 33.669,129.316 34.719 C 131.620 35.532,132.092 36.629,132.896 43.033 C 133.975 51.617,133.762 54.648,131.282 66.005 C 130.043 71.678,130.065 71.385,130.717 73.696 C 131.611 76.862,131.943 78.226,132.391 80.592 L 132.813 82.825 133.084 82.215 C 133.572 81.117,133.429 76.947,132.828 74.752 C 131.654 70.458,131.685 71.170,132.520 67.713 C 135.393 55.826,136.182 44.041,134.508 37.997 C 133.292 33.604,131.165 30.839,129.002 30.839 C 125.788 30.839,123.723 32.732,115.238 43.463 C 111.261 48.491,109.314 50.843,106.882 53.558 C 104.914 55.754,102.832 59.236,100.732 63.841 C 96.973 72.083,96.769 72.206,89.492 70.622 C 84.211 69.472,83.438 69.401,77.166 69.485 L 71.506 69.562 68.440 70.227 C 61.272 71.783,60.335 71.778,58.792 70.177 C 57.942 69.296,57.599 68.667,55.632 64.382 C 52.871 58.369,51.536 56.210,48.310 52.541 C 46.264 50.214,44.383 47.901,38.184 40.091 C 31.860 32.123,28.468 29.686,25.699 31.121 M107.665 91.014 C 99.119 91.626,91.061 93.892,88.503 96.402 L 87.827 97.065 87.827 98.920 C 87.827 102.678,88.883 104.821,92.728 108.869 C 96.087 112.404,97.959 115.120,99.893 119.261 L 100.774 121.148 102.191 121.618 C 109.434 124.022,116.804 123.192,120.506 119.555 L 121.774 118.310 121.653 117.090 C 121.421 114.746,120.970 112.432,120.451 110.927 C 119.778 108.976,119.779 107.900,120.458 104.619 C 120.835 102.798,121.020 101.288,121.097 99.405 C 121.260 95.403,121.261 95.399,122.126 94.784 L 122.868 94.257 122.345 93.827 C 119.716 91.666,113.960 90.563,107.665 91.014 M43.553 91.877 C 38.174 92.231,36.394 92.574,34.386 93.644 L 33.323 94.211 34.072 94.851 L 34.821 95.491 34.986 98.918 C 35.113 101.547,35.279 102.962,35.700 104.998 C 36.381 108.289,36.381 108.704,35.701 110.752 C 35.053 112.702,34.445 116.064,34.445 117.700 C 34.445 121.700,43.673 124.078,52.563 122.371 C 55.080 121.887,55.024 121.925,55.809 120.151 C 57.899 115.424,59.621 112.857,63.382 108.857 C 66.296 105.758,66.962 104.775,67.847 102.255 C 70.626 94.344,62.009 90.663,43.553 91.877 M56.271 101.659 C 56.877 102.614,57.116 103.335,57.808 106.283 C 58.446 109.002,58.438 109.025,56.267 110.589 C 52.959 112.973,49.909 113.205,47.324 111.269 C 45.211 109.688,43.889 106.147,44.565 103.877 L 44.806 103.066 44.856 103.787 C 45.283 110.023,48.065 112.488,53.032 111.034 C 56.837 109.919,57.902 104.598,55.065 100.878 L 54.561 100.219 55.154 100.525 C 55.480 100.694,55.983 101.204,56.271 101.659 M101.031 100.947 C 99.146 103.342,99.002 107.721,100.745 109.650 C 101.886 110.914,104.428 111.617,106.529 111.252 C 109.540 110.728,110.725 108.973,111.197 104.337 C 111.349 102.850,111.669 103.455,111.662 105.214 C 111.634 112.450,104.142 114.878,98.422 109.506 C 97.336 108.485,98.837 102.332,100.537 100.840 C 101.418 100.066,101.680 100.122,101.031 100.947 M76.535 110.197 C 73.288 110.626,71.456 111.564,70.618 113.227 C 69.864 114.726,68.690 116.238,67.289 117.515 L 66.276 118.439 66.276 120.130 C 66.276 121.498,66.353 121.988,66.678 122.692 L 67.079 123.562 66.648 124.414 C 65.528 126.624,64.334 131.151,63.669 135.708 C 63.285 138.342,62.804 145.101,62.988 145.285 C 63.047 145.343,65.636 143.413,68.743 140.996 C 78.016 133.780,77.307 134.289,78.071 134.300 C 78.790 134.310,78.755 134.285,89.450 142.617 L 92.967 145.357 93.024 143.688 C 93.211 138.189,91.584 129.192,89.613 124.825 L 89.097 123.682 89.478 122.571 C 90.227 120.392,90.044 118.969,88.763 116.991 C 88.170 116.075,87.412 114.824,87.079 114.211 C 85.661 111.597,80.580 109.663,76.535 110.197 M76.984 114.071 L 78.116 114.579 79.094 114.100 C 81.167 113.083,81.999 113.261,82.954 114.926 C 83.518 115.910,83.698 116.505,83.228 115.834 C 82.643 115.000,80.839 115.180,80.352 116.122 C 79.936 116.927,79.854 118.612,80.141 120.459 C 80.441 122.388,80.329 122.838,79.380 123.514 L 78.863 123.882 78.541 120.778 C 78.245 117.932,77.939 116.393,77.907 117.583 C 77.879 118.587,77.226 123.555,77.106 123.675 C 76.771 124.011,75.706 122.432,75.815 121.760 C 76.375 118.288,76.062 115.970,74.962 115.447 C 73.171 114.597,71.920 116.596,73.129 118.378 C 73.514 118.945,73.774 120.289,73.498 120.289 C 71.612 120.289,71.784 116.345,73.769 114.084 C 74.498 113.254,75.156 113.251,76.984 114.071 M83.943 117.693 C 84.088 118.774,83.750 119.781,83.130 120.112 C 82.289 120.563,82.199 119.673,82.958 118.395 C 83.266 117.875,83.496 117.226,83.501 116.862 C 83.513 115.993,83.783 116.500,83.943 117.693 M34.902 124.121 C 36.043 129.480,39.774 136.068,44.211 140.558 L 46.509 142.883 46.339 143.783 C 45.633 147.503,46.943 149.650,50.280 150.244 C 50.845 150.344,51.989 150.631,52.822 150.881 C 54.501 151.385,56.303 151.494,56.977 151.133 L 57.416 150.898 56.706 150.270 C 49.653 144.029,48.996 139.351,53.373 126.522 C 53.675 125.635,53.922 124.852,53.922 124.782 C 53.922 124.711,53.334 124.803,52.615 124.985 C 46.732 126.477,40.138 126.105,36.029 124.051 C 34.746 123.409,34.751 123.409,34.902 124.121 M120.289 124.259 C 117.083 126.028,109.838 126.711,104.509 125.746 C 103.417 125.549,102.501 125.407,102.471 125.431 C 102.442 125.455,102.793 126.682,103.253 128.157 C 106.819 139.617,106.104 144.562,100.153 149.594 C 99.474 150.168,98.893 150.741,98.863 150.867 C 98.708 151.506,101.228 151.513,103.246 150.881 C 104.040 150.632,105.212 150.336,105.851 150.223 C 107.454 149.938,109.648 148.547,109.648 147.815 C 109.648 147.779,109.730 147.317,109.831 146.788 C 109.957 146.120,109.952 145.365,109.812 144.315 L 109.611 142.804 110.985 141.538 C 114.975 137.861,118.693 132.020,120.436 126.691 C 121.393 123.766,121.386 123.653,120.289 124.259 M75.457 137.024 C 74.558 137.699,72.856 139.064,71.673 140.057 C 68.978 142.319,67.180 143.677,64.653 145.359 C 63.562 146.085,62.062 147.132,61.321 147.686 C 60.579 148.240,59.892 148.749,59.793 148.818 C 59.694 148.887,59.668 148.998,59.735 149.065 C 60.096 149.426,63.244 147.524,66.456 145.003 C 67.547 144.147,68.537 143.387,68.656 143.314 C 68.775 143.242,69.834 143.425,71.008 143.721 C 76.715 145.162,79.146 145.163,85.100 143.726 C 86.425 143.406,87.415 143.251,87.535 143.344 C 87.646 143.429,88.589 144.175,89.630 145.000 C 92.677 147.414,95.767 149.292,96.365 149.093 C 96.606 149.012,94.354 147.312,91.163 145.164 C 88.597 143.436,86.669 141.959,83.301 139.137 C 78.564 135.168,78.097 135.042,75.457 137.024 " stroke="none" fill="#212121" fill-rule="evenodd"></path>
		<path id="path2" d="M40.261 87.951 C 40.435 87.997,40.719 87.997,40.893 87.951 C 41.066 87.906,40.924 87.869,40.577 87.869 C 40.230 87.869,40.088 87.906,40.261 87.951 M46.393 87.951 C 46.567 87.997,46.851 87.997,47.024 87.951 C 47.198 87.906,47.056 87.869,46.709 87.869 C 46.362 87.869,46.220 87.906,46.393 87.951 M106.808 88.312 C 106.982 88.357,107.266 88.357,107.439 88.312 C 107.613 88.267,107.471 88.229,107.124 88.229 C 106.776 88.229,106.634 88.267,106.808 88.312 M112.130 88.315 C 112.354 88.358,112.679 88.357,112.852 88.311 C 113.024 88.266,112.840 88.231,112.444 88.233 C 112.047 88.235,111.906 88.272,112.130 88.315 " stroke="none" fill="#333333" fill-rule="evenodd"></path>
		<path id="path3" d="M42.335 87.961 C 43.055 87.995,44.231 87.995,44.950 87.961 C 45.670 87.927,45.081 87.899,43.643 87.899 C 42.205 87.899,41.616 87.927,42.335 87.961 M108.709 88.321 C 109.332 88.357,110.306 88.356,110.873 88.321 C 111.439 88.285,110.929 88.256,109.739 88.256 C 108.548 88.257,108.085 88.286,108.709 88.321 M50.007 91.567 C 50.581 91.603,51.473 91.603,51.990 91.566 C 52.507 91.530,52.038 91.501,50.947 91.501 C 49.856 91.502,49.433 91.531,50.007 91.567 M120.548 119.612 L 120.018 120.198 120.604 119.669 C 120.927 119.377,121.190 119.114,121.190 119.083 C 121.190 118.943,121.041 119.066,120.548 119.612 M110.146 123.121 C 110.371 123.164,110.695 123.163,110.868 123.118 C 111.040 123.072,110.857 123.037,110.460 123.039 C 110.063 123.041,109.922 123.078,110.146 123.121 M109.609 126.193 C 110.133 126.229,110.945 126.229,111.413 126.192 C 111.881 126.155,111.452 126.125,110.460 126.125 C 109.468 126.126,109.085 126.156,109.609 126.193 M334.427 169.252 C 334.428 170.739,334.456 171.324,334.489 170.551 C 334.523 169.778,334.523 168.560,334.489 167.846 C 334.455 167.131,334.427 167.764,334.427 169.252 " stroke="none" fill="#555555" fill-rule="evenodd"></path>
		<path id="path4" d="M109.874 90.845 C 110.345 90.882,111.116 90.882,111.587 90.845 C 112.058 90.808,111.673 90.777,110.730 90.777 C 109.788 90.777,109.403 90.808,109.874 90.845 M48.109 91.561 C 48.333 91.604,48.657 91.603,48.830 91.558 C 49.002 91.512,48.819 91.477,48.422 91.479 C 48.025 91.481,47.884 91.518,48.109 91.561 M53.158 91.561 C 53.382 91.604,53.707 91.603,53.879 91.558 C 54.052 91.512,53.868 91.477,53.472 91.479 C 53.075 91.481,52.934 91.518,53.158 91.561 M44.590 91.738 C 44.763 91.784,45.047 91.784,45.221 91.738 C 45.394 91.693,45.252 91.656,44.905 91.656 C 44.558 91.656,44.416 91.693,44.590 91.738 M67.712 116.907 L 66.817 117.854 67.764 116.959 C 68.284 116.467,68.711 116.041,68.711 116.012 C 68.711 115.878,68.543 116.027,67.712 116.907 M108.972 123.118 C 109.146 123.163,109.430 123.163,109.603 123.118 C 109.777 123.073,109.635 123.036,109.288 123.036 C 108.940 123.036,108.798 123.073,108.972 123.118 M44.234 125.832 C 44.709 125.869,45.439 125.868,45.858 125.831 C 46.276 125.793,45.888 125.762,44.995 125.763 C 44.103 125.763,43.760 125.794,44.234 125.832 M201.939 164.419 C 202.162 164.462,202.527 164.462,202.750 164.419 C 202.973 164.376,202.791 164.341,202.344 164.341 C 201.898 164.341,201.716 164.376,201.939 164.419 M205.546 164.423 C 205.868 164.463,206.395 164.463,206.718 164.423 C 207.040 164.383,206.776 164.350,206.132 164.350 C 205.487 164.350,205.223 164.383,205.546 164.423 M295.449 164.422 C 295.723 164.463,296.129 164.462,296.351 164.419 C 296.572 164.376,296.348 164.342,295.852 164.344 C 295.356 164.345,295.175 164.380,295.449 164.422 M298.959 164.422 C 299.279 164.462,299.847 164.463,300.221 164.424 C 300.596 164.385,300.334 164.352,299.639 164.351 C 298.945 164.351,298.639 164.382,298.959 164.422 " stroke="none" fill="#777777" fill-rule="evenodd"></path>
		<path id="path5" d="M306.212 79.486 L 305.591 80.162 306.267 79.541 C 306.639 79.199,306.943 78.895,306.943 78.865 C 306.943 78.727,306.791 78.857,306.212 79.486 " stroke="none" fill="#001155" fill-rule="evenodd"></path>
		<path id="path6" d="M163.254 62.796 C 158.934 72.057,145.490 100.918,142.648 107.033 C 140.895 110.807,129.624 135.001,124.670 145.627 C 123.236 148.702,122.020 151.319,121.968 151.443 C 121.893 151.621,123.456 151.668,129.439 151.668 L 137.005 151.668 143.480 137.606 L 149.955 123.544 168.136 123.585 L 186.317 123.625 192.587 137.601 L 198.858 151.578 206.462 151.625 C 210.985 151.653,214.067 151.605,214.067 151.507 C 214.067 151.416,211.501 145.836,208.366 139.106 C 205.231 132.377,201.041 123.381,199.055 119.116 C 197.070 114.851,193.234 106.614,190.531 100.812 C 187.828 95.009,183.161 84.986,180.158 78.539 C 177.156 72.092,173.393 64.017,171.795 60.595 L 168.890 54.373 168.062 54.319 L 167.234 54.266 163.254 62.796 M327.286 56.458 C 285.963 59.231,266.879 109.050,295.901 138.387 C 321.450 164.211,365.889 153.694,376.998 119.194 C 387.401 86.885,361.474 54.164,327.286 56.458 M193.815 57.484 C 193.774 57.559,195.236 60.825,197.064 64.743 C 200.488 72.084,203.724 79.031,212.355 97.565 C 215.104 103.467,219.810 113.571,222.813 120.018 C 225.816 126.465,229.915 135.271,231.922 139.585 C 233.928 143.900,236.329 149.053,237.256 151.037 L 238.942 154.644 239.866 154.644 L 240.791 154.644 243.225 149.414 C 244.564 146.537,248.097 138.950,251.076 132.552 C 254.056 126.154,257.892 117.917,259.601 114.247 C 265.129 102.374,273.057 85.353,279.592 71.326 C 283.104 63.787,285.942 57.559,285.900 57.484 C 285.755 57.233,270.941 57.321,270.739 57.574 C 270.640 57.698,269.137 60.924,267.400 64.743 C 265.662 68.562,261.927 76.758,259.100 82.958 C 256.273 89.157,251.610 99.382,248.739 105.681 C 245.867 111.979,242.714 118.893,241.731 121.046 L 239.946 124.959 239.566 124.112 C 237.747 120.049,208.934 57.747,208.795 57.574 C 208.590 57.321,193.953 57.233,193.815 57.484 M336.344 69.988 C 356.349 73.379,368.911 93.372,363.773 113.642 C 355.341 146.908,308.761 148.614,298.009 116.050 C 291.020 94.884,304.649 72.271,325.879 69.809 C 326.821 69.700,327.876 69.578,328.224 69.537 C 329.636 69.372,334.213 69.626,336.344 69.988 M174.555 98.174 C 177.746 105.105,180.326 110.807,180.288 110.845 C 180.251 110.882,174.702 110.892,167.958 110.867 L 155.696 110.821 161.250 98.918 C 164.305 92.372,167.102 86.381,167.465 85.605 L 168.126 84.195 168.440 84.884 C 168.612 85.263,171.364 91.243,174.555 98.174 " stroke="none" fill="#00247d" fill-rule="evenodd"></path>
		<path id="path7" d="M37.511 88.209 C 36.470 88.292,34.157 88.529,32.372 88.736 C 30.586 88.944,28.354 89.186,27.412 89.276 C 25.849 89.424,23.278 89.854,22.498 90.097 C 22.238 90.178,22.183 90.409,22.186 91.401 C 22.195 94.693,22.784 96.425,24.596 98.494 C 26.558 100.734,26.567 100.758,26.628 104.142 C 26.781 112.509,29.160 119.075,33.195 122.265 C 37.312 125.519,45.042 126.622,52.115 124.963 C 52.956 124.765,53.900 124.571,54.212 124.531 C 57.237 124.144,64.226 120.311,67.147 117.437 C 70.083 114.549,70.767 113.306,72.768 107.216 C 74.958 100.554,76.510 98.605,79.027 99.359 C 80.663 99.849,81.787 101.597,83.565 106.419 C 84.721 109.554,86.140 112.684,86.869 113.706 C 87.229 114.210,87.827 115.176,89.434 117.846 C 91.187 120.758,94.178 122.912,98.299 124.231 C 100.446 124.919,101.421 125.171,102.238 125.251 C 102.594 125.285,103.656 125.447,104.599 125.611 C 112.090 126.908,119.995 125.422,123.327 122.090 C 125.957 119.461,127.041 116.621,128.398 108.816 C 129.461 102.699,129.565 102.415,131.758 99.704 C 133.354 97.730,134.112 95.298,133.963 92.625 L 133.904 91.563 132.514 91.150 C 127.023 89.520,115.326 88.225,107.935 88.427 C 102.397 88.579,99.894 88.943,92.335 90.698 C 81.103 93.305,75.402 93.324,64.457 90.790 C 53.457 88.243,46.011 87.530,37.511 88.209 M115.930 91.175 C 123.720 92.512,126.891 97.719,125.709 107.232 C 124.070 120.410,116.419 125.555,103.517 122.155 C 100.282 121.303,95.669 118.899,93.375 116.870 C 89.339 113.300,85.773 101.405,87.583 97.550 C 89.636 93.179,106.076 89.482,115.930 91.175 M57.569 91.868 C 66.453 93.269,70.080 97.054,69.081 103.882 C 67.946 111.647,62.588 118.942,56.273 121.318 C 55.625 121.562,55.012 121.831,54.910 121.915 C 54.231 122.478,50.879 122.882,46.799 122.893 C 36.682 122.919,33.947 120.833,31.549 111.258 C 28.934 100.816,30.839 94.054,36.823 92.532 C 40.647 91.560,53.091 91.162,57.569 91.868 M29.409 93.064 C 30.295 93.538,28.531 94.258,26.966 94.060 C 24.475 93.746,24.240 93.449,25.969 92.802 C 26.391 92.644,28.995 92.842,29.409 93.064 M131.096 93.672 C 131.398 94.036,131.234 94.083,129.162 94.229 C 127.305 94.359,126.601 94.178,126.601 93.570 C 126.601 93.290,130.859 93.386,131.096 93.672 M222.481 159.392 C 222.084 159.830,222.101 160.736,222.512 161.108 C 223.271 161.795,224.527 161.270,224.527 160.265 C 224.527 159.250,223.143 158.660,222.481 159.392 M286.564 165.555 L 286.564 171.867 287.556 171.867 L 288.548 171.867 288.548 168.963 C 288.548 165.091,289.120 164.021,291.000 164.374 C 292.539 164.662,292.866 165.521,292.872 169.297 L 292.876 171.867 293.778 171.867 L 294.680 171.867 294.679 168.936 C 294.678 165.773,294.528 164.886,293.840 163.975 C 292.834 162.642,290.608 162.163,289.221 162.982 L 288.548 163.378 288.548 161.310 L 288.548 159.243 287.556 159.243 L 286.564 159.243 286.564 165.555 M301.172 165.555 L 301.172 171.867 302.074 171.867 L 302.976 171.867 302.976 169.065 C 302.976 165.242,303.373 164.382,305.140 164.382 C 306.907 164.382,307.304 165.242,307.304 169.065 L 307.304 171.867 308.206 171.867 L 309.107 171.867 309.106 168.846 C 309.105 165.241,308.968 164.632,307.937 163.639 C 306.689 162.437,305.011 162.207,303.562 163.041 L 302.976 163.378 302.976 161.310 L 302.976 159.243 302.074 159.243 L 301.172 159.243 301.172 165.555 M319.206 165.555 L 319.206 171.867 320.198 171.867 L 321.190 171.867 321.190 165.555 L 321.190 159.243 320.198 159.243 L 319.206 159.243 319.206 165.555 M347.701 165.555 L 347.701 171.867 348.602 171.867 L 349.504 171.867 349.504 165.555 L 349.504 159.243 348.602 159.243 L 347.701 159.243 347.701 165.555 M125.070 164.062 C 123.895 166.619,122.667 169.265,122.341 169.942 C 121.362 171.971,121.353 171.894,122.564 171.831 L 123.606 171.776 124.335 170.103 L 125.064 168.430 127.392 168.480 L 129.720 168.530 130.445 170.198 L 131.170 171.867 132.216 171.867 C 133.055 171.867,133.242 171.815,133.162 171.605 C 132.642 170.250,127.546 159.527,127.399 159.479 C 127.293 159.443,126.245 161.506,125.070 164.062 M267.878 159.858 C 262.326 161.205,261.411 168.857,266.503 171.362 C 269.018 172.599,271.950 172.077,273.840 170.055 C 278.019 165.588,273.825 158.415,267.878 159.858 M182.507 159.942 C 182.507 160.217,187.947 171.944,188.198 172.210 C 188.399 172.424,188.520 172.283,188.968 171.308 C 189.260 170.673,190.563 167.852,191.864 165.040 C 193.165 162.228,194.229 159.895,194.229 159.855 C 194.229 159.816,193.762 159.786,193.192 159.789 L 192.155 159.794 190.244 164.029 L 188.333 168.264 186.387 164.024 L 184.441 159.784 183.474 159.784 C 182.942 159.784,182.507 159.855,182.507 159.942 M203.066 161.226 L 203.066 162.669 202.254 162.669 L 201.443 162.669 201.443 163.527 L 201.443 164.385 202.254 164.320 L 203.066 164.256 203.066 168.061 L 203.066 171.867 204.058 171.867 L 205.050 171.867 205.050 168.079 L 205.050 164.292 206.222 164.292 L 207.394 164.292 207.394 163.481 L 207.394 162.669 206.222 162.669 L 205.050 162.669 205.050 161.226 L 205.050 159.784 204.058 159.784 L 203.066 159.784 203.066 161.226 M296.664 161.226 L 296.664 162.669 295.762 162.669 L 294.860 162.669 294.860 163.481 L 294.860 164.292 295.762 164.292 L 296.664 164.292 296.664 168.079 L 296.664 171.867 297.565 171.867 L 298.467 171.867 298.467 168.079 L 298.467 164.292 299.639 164.292 L 300.812 164.292 300.812 163.481 L 300.812 162.669 299.639 162.669 L 298.467 162.669 298.467 161.226 L 298.467 159.784 297.565 159.784 L 296.664 159.784 296.664 161.226 M270.978 161.858 C 273.334 162.815,274.301 165.984,272.919 168.219 C 271.159 171.066,266.936 170.835,265.531 167.816 C 263.827 164.159,267.298 160.363,270.978 161.858 M137.283 162.666 C 136.959 162.743,136.371 163.019,135.976 163.281 L 135.257 163.756 135.257 163.213 C 135.257 162.681,135.238 162.669,134.355 162.669 L 133.454 162.669 133.454 167.268 L 133.454 171.867 134.355 171.867 L 135.257 171.867 135.258 169.567 C 135.259 166.133,135.794 164.959,137.577 164.479 L 138.342 164.273 138.287 163.440 C 138.227 162.525,138.147 162.463,137.283 162.666 M141.703 162.746 C 141.330 162.880,140.904 163.089,140.756 163.212 C 140.532 163.397,140.487 163.371,140.487 163.052 C 140.487 162.713,140.384 162.669,139.585 162.669 L 138.683 162.669 138.683 167.268 L 138.683 171.867 139.585 171.867 L 140.487 171.867 140.487 168.975 C 140.487 165.099,141.002 164.044,142.734 164.369 C 144.111 164.627,144.454 165.593,144.454 169.205 L 144.454 171.867 145.356 171.867 L 146.258 171.867 146.258 168.987 C 146.258 164.876,147.195 163.440,149.130 164.584 C 150.060 165.133,150.131 165.410,150.195 168.756 L 150.255 171.867 151.142 171.867 L 152.029 171.867 152.028 168.756 C 152.027 165.151,151.895 164.519,150.952 163.576 C 149.644 162.268,147.549 162.202,146.157 163.424 L 145.520 163.983 144.987 163.438 C 144.169 162.601,142.874 162.328,141.703 162.746 M156.628 162.648 C 151.393 163.997,151.871 171.620,157.214 172.002 C 163.377 172.443,164.201 163.226,158.056 162.599 C 157.568 162.549,156.925 162.571,156.628 162.648 M176.298 162.755 C 175.908 162.895,175.361 163.179,175.081 163.386 L 174.572 163.762 174.572 163.215 C 174.572 162.680,174.554 162.669,173.670 162.669 L 172.768 162.669 172.768 167.268 L 172.768 171.867 173.670 171.867 L 174.572 171.867 174.573 169.567 C 174.574 166.252,175.172 164.848,176.715 164.540 C 177.460 164.391,177.672 164.088,177.604 163.269 C 177.538 162.471,177.323 162.387,176.298 162.755 M196.303 162.665 C 190.739 164.095,191.752 172.056,197.496 172.045 C 198.507 172.043,199.872 171.513,200.676 170.811 C 201.191 170.361,201.186 170.281,200.597 169.667 C 200.002 169.045,199.949 169.044,199.159 169.647 C 197.617 170.823,194.599 169.877,194.590 168.215 C 194.590 168.140,196.224 168.079,198.221 168.079 L 201.852 168.079 201.763 
			166.830 C 201.556 163.943,198.979 161.977,196.303 162.665 M210.263 162.759 C 205.997 164.125,205.996 170.399,210.261 171.840 C 212.400 172.562,216.272 171.024,215.226 169.868 C 214.659 169.242,214.258 169.097,213.916 169.396 C 212.266 170.840,209.027 170.059,209.018 168.215 C 209.017 168.140,210.650 168.079,212.645 168.079 L 216.273 168.079 216.197 166.952 C 215.985 163.820,213.168 161.829,210.263 162.759 M220.662 162.757 C 220.273 162.896,219.725 163.179,219.445 163.386 L 218.936 163.762 218.936 163.215 C 218.936 162.680,218.918 162.669,218.034 162.669 L 217.133 162.669 217.133 167.268 L 217.133 171.867 218.034 171.867 L 218.936 171.867 218.936 169.498 C 218.936 166.108,219.346 165.145,221.035 164.566 C 221.709 164.335,221.733 164.298,221.786 163.408 C 221.847 162.380,221.798 162.352,220.662 162.757 M229.169 162.738 C 228.796 162.876,228.370 163.089,228.222 163.212 C 227.998 163.397,227.953 163.371,227.953 163.052 C 227.953 162.708,227.852 162.669,226.961 162.669 L 225.969 162.669 225.969 167.268 L 225.969 171.867 226.961 171.867 L 227.953 171.867 227.953 168.882 C 227.953 165.234,228.376 164.292,230.015 164.292 C 231.699 164.292,232.101 165.177,232.101 168.882 L 232.101 171.867 233.107 171.867 L 234.113 171.867 234.054 168.575 C 233.991 165.076,233.896 164.654,232.937 163.599 C 232.096 162.675,230.391 162.285,229.169 162.738 M237.476 162.741 C 237.010 162.867,236.297 163.189,235.891 163.458 L 235.153 163.946 235.529 164.474 C 236.082 165.251,236.162 165.263,237.247 164.732 C 238.508 164.115,239.542 164.191,240.194 164.949 C 240.695 165.531,240.807 165.456,238.503 166.083 C 235.955 166.775,234.806 167.863,234.806 169.581 C 234.806 171.716,237.419 172.740,239.746 171.516 L 240.756 170.985 240.866 171.426 C 240.967 171.826,241.067 171.867,241.969 171.867 C 242.846 171.867,242.944 171.830,242.819 171.551 C 242.741 171.377,242.625 169.775,242.561 167.989 C 242.434 164.462,242.295 163.919,241.346 163.245 C 240.322 162.517,238.965 162.340,237.476 162.741 M247.589 162.766 C 247.130 162.910,246.654 163.149,246.529 163.299 C 246.212 163.681,246.022 163.637,245.955 163.165 C 245.905 162.812,245.775 162.752,244.950 162.705 L 244.004 162.650 244.004 167.258 L 244.004 171.867 244.999 171.867 L 245.995 171.867 245.977 169.264 C 245.956 166.284,246.137 165.653,247.227 164.912 C 248.419 164.102,248.466 164.145,250.092 167.536 L 251.561 170.600 250.397 173.009 C 249.000 175.902,249.015 175.654,250.236 175.654 L 251.239 175.654 252.964 172.092 C 253.912 170.133,255.323 167.211,256.099 165.600 L 257.510 162.669 256.474 162.669 L 255.437 162.669 254.033 165.600 L 252.629 168.530 251.214 165.600 C 250.159 163.414,249.716 162.668,249.471 162.667 C 249.291 162.665,248.981 162.628,248.783 162.585 C 248.584 162.541,248.047 162.623,247.589 162.766 M279.918 162.749 C 279.485 162.889,278.938 163.186,278.700 163.409 L 278.269 163.814 278.269 163.242 C 278.269 162.675,278.260 162.669,277.367 162.669 L 276.465 162.669 276.465 169.071 L 276.465 175.473 277.367 175.473 L 278.269 175.473 278.269 173.217 L 278.269 170.960 279.015 171.454 C 281.371 173.013,284.715 171.508,285.591 168.494 C 286.576 165.104,283.203 161.688,279.918 162.749 M312.353 162.815 C 310.394 163.463,310.091 163.847,310.827 164.743 L 311.272 165.284 311.989 164.875 C 313.001 164.298,314.093 164.193,314.878 164.598 C 315.921 165.135,315.739 165.582,314.363 165.860 C 311.040 166.533,309.377 168.205,309.992 170.256 C 310.516 172.005,313.351 172.631,315.115 171.388 L 315.922 170.819 316.027 171.343 C 316.127 171.843,316.175 171.867,317.107 171.867 L 318.082 171.867 317.841 171.190 C 317.681 170.743,317.597 169.587,317.591 167.775 C 317.583 164.930,317.466 164.309,316.805 163.599 C 315.856 162.579,314.034 162.259,312.353 162.815 M325.969 162.707 C 325.672 162.811,325.286 163.020,325.113 163.171 C 324.825 163.422,324.797 163.412,324.797 163.058 C 324.797 162.707,324.701 162.669,323.805 162.669 L 322.813 162.669 322.813 167.268 L 322.813 171.867 323.805 171.867 L 324.797 171.867 324.797 168.882 C 324.797 165.036,325.297 164.041,327.062 164.372 C 328.392 164.622,328.584 165.173,328.584 168.724 L 328.584 171.867 329.576 171.867 L 330.568 171.867 330.568 168.882 C 330.568 165.050,331.070 164.042,332.815 164.369 C 334.187 164.626,334.525 165.597,334.531 169.297 L 334.536 171.867 335.451 171.867 L 336.367 171.867 336.308 168.485 C 336.253 165.369,336.216 165.043,335.836 164.330 C 334.813 162.415,331.904 161.943,330.375 163.445 L 329.787 164.022 329.223 163.454 C 328.378 162.606,327.097 162.312,325.969 162.707 M340.797 162.677 C 335.623 163.960,336.186 171.577,341.486 172.003 C 345.566 172.330,348.072 167.797,345.649 164.472 C 344.599 163.033,342.497 162.255,340.797 162.677 M354.253 162.662 C 352.030 163.191,350.426 165.429,350.634 167.713 C 351.130 173.188,358.931 173.557,359.951 168.154 C 360.571 164.865,357.486 161.892,354.253 162.662 M363.565 162.766 C 359.610 163.985,359.170 169.729,362.889 171.582 C 364.372 172.321,366.332 172.149,367.423 171.183 C 367.762 170.884,367.769 170.892,367.643 171.416 C 367.060 173.847,364.593 174.651,362.811 172.990 L 362.323 172.534 361.684 173.021 C 360.890 173.627,360.891 173.668,361.740 174.435 C 364.047 176.520,367.575 175.807,369.096 172.949 C 369.395 172.387,369.438 171.785,369.488 167.493 L 369.544 162.669 368.631 162.669 C 367.735 162.669,367.719 162.679,367.719 163.217 L 367.719 163.765 367.319 163.393 C 366.483 162.614,364.909 162.351,363.565 162.766 M163.211 165.780 C 163.212 169.242,163.344 169.973,164.130 170.868 C 165.206 172.093,167.588 172.431,168.806 171.530 C 169.335 171.140,169.342 171.139,169.342 171.500 C 169.342 171.820,169.458 171.867,170.243 171.867 L 171.145 171.867 171.145 167.268 L 171.145 162.669 170.243 162.669 L 169.342 162.669 169.342 165.560 C 169.342 169.382,168.947 170.243,167.195 170.243 C 165.428 170.243,165.117 169.598,165.044 165.780 L 164.984 162.669 164.097 162.669 L 163.210 162.669 163.211 165.780 M222.362 167.268 L 222.362 171.867 223.354 171.867 L 224.346 171.867 224.346 167.268 L 224.346 162.669 223.354 162.669 L 222.362 162.669 222.362 167.268 M369.702 162.753 C 369.702 162.800,370.553 164.590,371.592 166.731 L 373.482 170.625 372.313 172.957 C 370.892 175.793,370.898 175.685,372.157 175.618 L 373.169 175.564 376.215 169.276 C 379.729 162.021,379.525 162.669,378.297 162.669 L 377.333 162.669 375.922 165.600 L 374.511 168.530 373.105 165.600 L 371.698 162.669 370.700 162.669 C 370.151 162.669,369.702 162.707,369.702 162.753 M128.700 166.581 C 128.661 166.620,128.025 166.629,127.288 166.600 L 125.947 166.546 126.664 165.014 L 127.381 163.481 128.076 164.995 C 128.459 165.828,128.739 166.542,128.700 166.581 M158.809 164.636 C 161.524 165.869,160.597 170.243,157.619 170.243 C 154.647 170.243,153.694 166.055,156.358 164.698 C 157.321 164.208,157.838 164.194,158.809 164.636 M198.663 164.737 C 199.085 165.013,199.817 166.017,199.819 166.321 C 199.819 166.395,198.643 166.456,197.205 166.456 C 195.766 166.456,194.590 166.405,194.590 166.342 C 194.590 164.924,197.312 163.851,198.663 164.737 M213.090 164.737 C 213.513 165.013,214.245 166.017,214.246 166.321 C 214.247 166.395,213.070 166.456,211.632 166.456 C 210.194 166.456,209.017 166.395,209.018 166.321 C 209.025 164.902,211.734 163.848,213.090 164.737 M282.570 164.786 C 284.872 166.505,283.902 170.242,281.154 170.242 C 279.289 170.242,278.051 168.556,278.478 166.598 C 278.896 164.687,281.119 163.703,282.570 164.786 M342.891 164.538 C 344.175 165.075,344.998 166.730,344.641 168.056 C 343.971 170.544,340.909 171.064,339.522 168.924 C 337.991 166.564,340.359 163.480,342.891 164.538 M356.465 164.636 C 359.203 165.879,358.319 170.243,355.330 170.243 C 352.192 170.243,351.384 165.842,354.283 164.548 C 355.024 164.217,355.594 164.240,356.465 164.636 M366.186 164.702 C 368.832 166.182,367.658 170.437,364.669 170.197 C 363.807 170.128,363.614 170.034,363.013 169.389 C 360.760 166.975,363.367 163.125,366.186 164.702 M240.273 168.940 C 239.648 170.214,237.987 170.827,237.010 170.143 C 235.866 169.341,237.077 168.016,239.448 167.474 L 240.487 167.236 240.544 167.754 C 240.575 168.039,240.454 168.573,240.273 168.940 M315.624 168.134 C 315.282 169.967,313.478 171.029,312.213 170.143 C 311.020 169.307,312.215 167.950,314.578 167.458 C 315.913 167.180,315.814 167.116,315.624 168.134 " stroke="none" fill="#969491" fill-rule="evenodd"></path>
	</g>
</svg>