<svg id="Layer_1" xmlns="http://www.w3.org/2000/svg" viewBox="0 0 320 91.8"><style>.st0{fill:#FFFFFF;} .st1{fill:#A49C87;} .st2{fill:#9FA78B;} .st3{fill:#FFFFFE;} .st4{fill:#2E4117;}</style><path class="st0" d="M90.3 23.2H77.5v8.4h11.7v3.5l-11.6.1v27.7l-6.7-.1V19.7h19.3v3.5zM111.1 62c-1.3-2.1-5.4-8.9-6.7-11.1l-2.1-.2V63h-6.8V19.7c1.2-.2 2.3-.2 4.1-.2 12.8.1 18.8 6.8 18.5 17.4-.1 3.6-1.8 9.6-7.6 11.5 3.4 4.3 5.5 11.7 9.3 15.6-4.5.2-7 .7-8.7-2m-8.7-39.3v25.5c6.4-.2 9.2-6.5 9.2-11.6.1-4.3-.7-13.8-9.2-13.9M124.8 62.9V19.8l6.8.1.1 43.1h-6.9zM158.3 62.8H139V19.7h19.3v3.5h-12.8v8.4h11.8v3.6l-11.8.1.1 24.1h12.7v3.4zM187.6 63l-7-.1-12.2-33.4v33.4h-3.7V19.8l6.8.1 12.4 33 .1-33h3.5V63zM271.1 62.9l-.1-27.6h-9.8V63h-7V19.8h7v11.9h9.8V19.8l6.8-.1v43.1l-6.7.1zM284.8 62.9l.1-43.2 6.8.1.1 43.1h-7zM320 37c0 8.5-6.1 15.6-14.8 16.3l-.1 9.8h-6.5l-.1-43.3c1.1-.1 2.3-.2 3.6-.2 10.6 0 17.9 6.2 17.9 17.4m-14.7-14.3v27.8c6.8-.2 8.1-9.1 8.1-14.1.1-5.8-1.9-13.2-8.1-13.7M231.8 27.3c0-2.8 2.5-5.1 5.2-5.1 3.2 0 5.4 2.3 5.6 5.4.8-.4 1.2-1.3 1.2-2.2 0-3.8-4.2-5.4-7.4-5.4-4.8 0-10.2 3.9-10.2 9 0 12.6 17.5 10.8 17.9 25.4.3 10.1-5.2 15-10.8 15.3-6 .4-11.8-3.6-11.8-10.9 0-5.3 3.3-7.3 6-10.1-.6-.3-1.2-.4-1.8-.4-1.8 0-4.1.8-6 2 1.1-2.7 1.8-5.6 1.8-8.6 0-14.6-9.5-22.7-23.1-22.7-1.8 0-3.3.1-4.7.2l.1 43.7h8.5l.1-.1c4.5-.3 8.5-2 11.7-4.7.2 10.2 10.8 15 19.3 13.7 9.6-1.4 18.6-6.8 18.4-18.7-.4-13.3-20-17.3-20-25.8m-31.2 31.5v-36c8.5 1.2 13.3 10.8 13.3 18.3-.1 6.4-4.1 18-13.3 17.7"/><path class="st1" d="M77.5 84.8h-3s-1 0-1.5.1v1.2c0 1.1 0 2.1.1 2.9 0 .8.1 1.7.2 2.5-.3 0-.5-.1-.8-.1h-1.8c-.3 0-.5 0-.8.1.1-.8.1-1.7.1-2.5v-5.6-2.9c0-.8-.1-1.8-.1-2.6.2 0 .5.1.8.1h1.8s.5-.1.8-.1c-.1.8-.1 1.8-.2 2.6v2.9h6.1v-2.9c0-.8-.1-1.7-.1-2.6.2 0 .5.1.8.1h1.8c.3 0 .5-.1.8-.1-.1.8-.1 1.8-.2 2.6V89s.1 1.7.2 2.5c-.3 0-.5-.1-.8-.1h-1.8c-.3 0-.5 0-.8.1.1-.8.1-1.7.1-2.5v-4.1c-.7 0-1.2 0-1.7-.1M85.5 81.9c.3-.8.9-1.6 1.5-2.2.7-.7 1.5-1.2 2.4-1.5.9-.3 2-.6 3.2-.6 1.1 0 2.1.2 3 .4.9.3 1.7.8 2.4 1.3.7.6 1.3 1.3 1.6 2.2.4.9.6 1.9.6 3.2 0 1-.2 1.9-.6 2.8-.4.8-.9 1.6-1.6 2.3-.7.7-1.5 1.2-2.4 1.5-.9.3-1.9.5-3.1.5-1.1 0-2-.2-2.9-.4-.9-.3-1.8-.7-2.4-1.3-.7-.6-1.3-1.3-1.6-2.2-.4-.9-.6-2-.6-3.2-.1-.9.1-1.9.5-2.8m11 0c-.3-.7-.5-1.3-.9-1.8s-.8-.8-1.3-1.1c-.5-.2-1.1-.4-1.8-.4s-1.3.2-1.8.5-1 .8-1.3 1.3c-.3.6-.7 1.2-.8 1.9-.2.8-.3 1.6-.3 2.4 0 1.1.1 1.9.3 2.7.2.8.5 1.3.9 1.8.4.4.8.8 1.3 1 .5.2 1 .3 1.6.3.6 0 1.2-.2 1.7-.4.6-.3 1-.7 1.4-1.2.4-.5.8-1.2 1-2 .3-.8.3-1.8.3-2.8 0-.7 0-1.4-.3-2.2M106.4 78.8c-.6 0-1.1.2-1.5.5-.4.3-.6.8-.6 1.3s.2.9.4 1.2c.3.3.7.6 1.1.8.4.2.9.5 1.4.7.5.3 1 .5 1.4.8.4.3.8.8 1.1 1.3.3.5.4 1.1.4 1.8s-.2 1.3-.4 1.8c-.3.6-.6 1-1.1 1.4-.5.4-1 .7-1.7.9-.7.2-1.3.3-2.2.3-.8 0-1.3-.1-1.9-.3-.6-.2-1-.3-1.3-.6.2-.5.3-.9.3-1.3.1-.4.2-.8.3-1.3h.4c.1.2.2.6.3.8.2.3.3.5.6.7.2.2.5.3.8.5.3.1.7.2 1.1.2.8 0 1.4-.2 1.8-.6.4-.4.6-.8.6-1.4 0-.5-.2-.9-.4-1.3-.3-.3-.7-.6-1.1-.8-.4-.3-.9-.5-1.4-.8-.5-.3-1-.5-1.4-.8-.4-.3-.8-.8-1.1-1.3-.3-.5-.4-1.1-.4-1.8s.1-1.3.3-1.8c.2-.5.6-1 1-1.3.4-.3.9-.7 1.4-.8.5-.2 1.1-.2 1.7-.2.8 0 1.3.1 1.9.2.5.2 1 .4 1.4.8-.1.3-.3.6-.3.9-.1.3-.2.7-.3 1.1h-.3c-.3-1-1-1.6-2.3-1.6M113.2 80.4c0-.8-.1-1.8-.1-2.6.3 0 .5.1.8.1h.9c.5 0 .9 0 1.4-.1.5 0 1-.1 1.5-.1.9 0 1.7.1 2.2.2.5.2.9.3 1.3.6s.7.8.9 1.2c.2.4.3.9.3 1.5 0 .8-.2 1.4-.4 1.9-.3.6-.6 1-1.1 1.3-.4.3-1 .6-1.6.8-.6.2-1.3.3-2.1.3h-1v3c0 1 .1 2 .2 2.9-.3 0-.5-.1-.8-.1h-1.8c-.3 0-.5 0-.7.1.1-.8.1-1.7.1-2.5v-5.6-2.9m5.8 0c-.1-.3-.3-.6-.5-.8-.2-.2-.4-.3-.7-.4-.2-.1-.5-.2-.8-.2h-.8v5.5c.3 0 .7 0 1-.1.3-.1.7-.2 1-.4.3-.2.5-.5.8-.9.2-.4.3-.9.3-1.5l-.3-1.2M124.9 80.4c0-.8-.1-1.8-.1-2.6.3 0 .5.1.7.1h1.8c.3 0 .5-.1.8-.1-.1.8-.1 1.8-.2 2.6 0 .8-.1 1.8-.1 2.9V86c0 1.1 0 2.1.1 2.9 0 .8.1 1.7.2 2.5-.3 0-.5-.1-.8-.1h-1.8c-.3 0-.5 0-.7.1.1-.8.1-1.7.1-2.5v-5.6c.1-1 .1-2 0-2.9M134.3 80c0-.3 0-.6-.1-.7h-.8c-.3 0-.6 0-.9.1-.3 0-.7.1-1 .1-.3 0-.7.1-.9.1 0-.2.1-.3.1-.4v-.4-.4c0-.2-.1-.3-.1-.4.4 0 .8 0 1.3.1h8c.3 0 .8 0 1.2-.1 0 .2-.1.3-.1.4v.8c0 .2.1.3.1.4-.3 0-.6-.1-.9-.1s-.7-.1-1-.1c-.3 0-.7 0-.9-.1h-.7v6.6c0 1.1 0 2.1.1 2.9 0 .8.1 1.7.2 2.5-.3 0-.5-.1-.8-.1h-1.9c-.2 0-.5 0-.7.1.1-.8.1-1.7.1-2.5v-7.9c-.3-.2-.3-.6-.3-.9M153.3 91.5c-.3 0-.6-.1-.9-.1h-1.6c-.3 0-.6 0-.8.1-.3-.7-.4-1.3-.7-2-.3-.7-.5-1.3-.8-2h-4.6c-.3.7-.5 1.3-.7 2s-.4 1.3-.6 2c-.2 0-.3-.1-.5-.1h-1c-.2 0-.3 0-.5.1.2-.3.3-.8.7-1.4.3-.6.6-1.3.9-2.1.3-.8.7-1.6 1-2.5.3-.9.7-1.8 1.1-2.7.3-.9.8-1.7 1.1-2.7.3-.8.7-1.7 1-2.4.2 0 .2.1.4.1h.8c.1 0 .2-.1.4-.1.4 1.2.9 2.3 1.3 3.6.5 1.3 1 2.6 1.5 3.8.5 1.3 1 2.4 1.4 3.5.2 1.2.6 2.2 1.1 2.9m-7-9.9c-.3.8-.7 1.6-1 2.3-.3.8-.6 1.6-.9 2.3h3.7c-.3-.8-.6-1.6-.8-2.3-.5-.7-.8-1.6-1-2.3M155.8 80.4c0-.8-.1-1.8-.1-2.6.3 0 .5.1.7.1h1.8s.5-.1.8-.1c-.1.8-.1 1.8-.2 2.6V90c.7 0 1.5 0 2.3-.1.7 0 1.5-.1 2.2-.2 0 .2-.1.3-.1.4v1c0 .1 0 .3.1.3H155.5c.1-.8.1-1.7.1-2.5v-5.6c.2-1 .2-2 .2-2.9M171.9 80.4c0-.8-.1-1.8-.2-2.6.6 0 1.2 0 1.8.1.6 0 1.2.1 1.8.1h2.6c.8 0 1.3-.1 1.5-.1-.1.3-.1.5-.1.8v.5s0 .3.1.4c-.4 0-.8-.1-1.3-.1s-.9-.1-1.3-.1-.8-.1-1.2-.1h-.7c-.1.8-.1 1.4-.1 2.2v2.2c.8 0 1.7 0 2.3-.1.7 0 1.4-.1 2.2-.1 0 .3-.1.4-.1.5v.7c0 .1 0 .3.1.5-1.5-.1-3-.2-4.5-.2v3.9c0 .8.1 1.7.2 2.5-.2 0-.5-.1-.7-.1h-1.8c-.3 0-.5 0-.8.1.1-.8.1-1.7.2-2.5 0-.8.1-1.8.1-2.9v-2.7c0-1 0-2-.1-2.9M182 81.9c.3-.8.9-1.6 1.5-2.2.7-.7 1.5-1.2 2.4-1.5.9-.3 2-.6 3.2-.6 1.1 0 2.1.2 3 .4.9.3 1.8.8 2.4 1.3.7.6 1.3 1.3 1.6 2.2.4.9.6 1.9.6 3.2 0 1-.2 1.9-.6 2.8-.4.8-.9 1.6-1.6 2.3-.7.7-1.5 1.2-2.4 1.5s-1.9.5-3.1.5c-1.1 0-2-.2-2.9-.4-.9-.3-1.8-.7-2.4-1.3-.7-.6-1.3-1.3-1.6-2.2-.4-.9-.6-2-.6-3.2 0-.9.2-1.9.5-2.8m11.1 0c-.3-.7-.5-1.3-.9-1.8s-.8-.8-1.3-1.1c-.5-.2-1.1-.4-1.8-.4s-1.3.2-1.8.5-1 .8-1.3 1.3c-.3.6-.7 1.2-.8 1.9-.2.8-.3 1.6-.3 2.4 0 1.1.1 1.9.3 2.7.3.8.5 1.3.9 1.8.4.4.8.8 1.3 1 .5.2 1 .3 1.6.3s1.2-.2 1.7-.4c.6-.3 1-.7 1.4-1.2.4-.5.8-1.2 1-2 .3-.8.3-1.8.3-2.8-.1-.7-.1-1.4-.3-2.2M202.5 85.3V89s.1 1.7.2 2.5c-.3 0-.5-.1-.7-.1h-1.9c-.3 0-.5 0-.8.1.1-.8.1-1.7.1-2.5v-5.6-2.9c0-.8-.1-1.8-.1-2.6.3 0 .5.1.8.1h.9c.3 0 .8 0 1.3-.1.4 0 1-.1 1.7-.1h1.3c.3 0 .7.1.9.1.3.1.5.1.7.3.2.1.3.2.6.3.4.3.7.7.9 1.1.3.4.3.9.3 1.5 0 1-.3 1.7-.8 2.3-.5.6-1.3 1-2.3 1.3.7 1.2 1.3 2.3 2.1 3.3.7 1.1 1.4 2.2 2.2 3.3-.3 0-.6-.1-.9-.1h-2c-.3 0-.6 0-.9.1l-3.6-6m2.9-5.1c-.1-.3-.3-.6-.6-.8-.3-.2-.6-.3-.9-.3-.4-.1-.8-.1-1.4-.1 0 1.8-.1 3.6-.1 5.4h.5c.9 0 1.6-.3 2-.7.5-.5.7-1.2.7-2.2.1-.5 0-1-.2-1.3M231.4 91.5c-.3 0-.6-.1-.9-.1h-1.6c-.3 0-.6 0-.8.1-.3-.7-.4-1.3-.7-2-.3-.7-.5-1.3-.8-2H222c-.2.7-.5 1.3-.7 2-.3.7-.4 1.3-.6 2-.2 0-.3-.1-.5-.1h-1c-.2 0-.3 0-.5.1.2-.3.3-.8.7-1.4.3-.6.6-1.3.8-2.1.3-.8.7-1.6 1-2.5.3-.9.8-1.8 1.1-2.7.3-.9.8-1.7 1.1-2.7.3-.8.7-1.7 1-2.4.2 0 .3.1.4.1h.8c.1 0 .3-.1.4-.1.4 1.2.9 2.3 1.3 3.6.5 1.3 1 2.6 1.5 3.8.5 1.3 1 2.4 1.4 3.5.4 1.2.9 2.2 1.2 2.9m-7-9.9c-.3.8-.7 1.6-1 2.3-.3.8-.6 1.6-.9 2.3h3.7c-.2-.8-.6-1.6-.8-2.3-.4-.7-.6-1.6-1-2.3M234.1 79.5c0-.6 0-1.2-.1-1.7.3.1.7.1.9.1.3 0 .5 0 .9-.1 1.4 1.6 2.8 3.2 4.3 4.8 1.4 1.6 2.8 3.2 4.3 4.8v-3.7-1.9V80v-1.3c0-.4-.1-.7-.1-.8.3.1.7.1.9.1.3 0 .5 0 .9-.1-.1 1.2-.1 2.3-.2 3.3s-.1 1.9-.1 2.8c0 .8-.1 1.8-.1 2.6v5.1c-.2 0-.5-.1-.8-.1-.2 0-.6 0-.8.1-2.8-3.2-5.6-6.4-8.7-9.6v9.6c-.2 0-.3-.1-.5-.1h-.4c-.3 0-.6 0-.9.1 0-.1.1-.5.1-1.2s.1-1.4.2-2.3c.1-.9.1-1.9.1-3s.1-2.2.1-3.2c.1-1.2 0-1.9 0-2.5M249.9 80.4c0-.8-.1-1.8-.1-2.6.3 0 .5.1.8.1h1.8c.3 0 .5-.1.8-.1-.1.8-.1 1.8-.2 2.6 0 .8-.1 1.8-.1 2.9V86c0 1.1 0 2.1.1 2.9 0 .8.1 1.7.2 2.5-.2 0-.5-.1-.8-.1h-1.8c-.3 0-.5 0-.8.1.1-.8.1-1.7.1-2.5v-5.6-2.9M258.1 87c-.1 1.5-.3 3-.3 4.4-.2 0-.3-.1-.5-.1h-.9c-.2 0-.3 0-.5.1.4-2.3.8-4.6 1.2-6.8.3-2.2.7-4.5.9-6.8.2 0 .3.1.4.1h.8c.2 0 .3-.1.4-.1.3.8.7 1.6 1.1 2.4.4.8.8 1.7 1.2 2.4l1.2 2.4c.4.8.8 1.5 1.1 2.3.8-1.5 1.6-3 2.3-4.7.8-1.6 1.5-3.3 2.2-4.8.3.1.6.1.8.1s.5 0 .8-.1c.2 1.2.3 2.3.4 3.7.2 1.3.3 2.6.4 3.8.2 1.3.3 2.4.4 3.5.2 1.1.3 2 .4 2.6-.3 0-.5-.1-.8-.1h-1.6c-.3 0-.6 0-.8.1-.1-1.3-.2-2.8-.3-4.4-.2-1.6-.3-3.2-.5-4.7-.7 1.6-1.5 3.1-2.2 4.6-.8 1.5-1.4 3-2.2 4.6h-.8c-.8-1.5-1.4-3-2.2-4.4-.7-1.5-1.4-3-2.2-4.5 0 1.5-.1 3-.2 4.4M286.3 91.5c-.3 0-.6-.1-.9-.1h-1.6c-.2 0-.6 0-.8.1-.2-.7-.4-1.3-.7-2-.3-.7-.5-1.3-.8-2h-4.6c-.3.7-.5 1.3-.8 2-.2.7-.4 1.3-.6 2-.2 0-.3-.1-.5-.1h-1c-.2 0-.3 0-.5.1.2-.3.3-.8.7-1.4.3-.6.6-1.3.8-2.1.3-.8.7-1.6 1-2.5.3-.9.8-1.8 1.1-2.7.3-.9.7-1.7 1.1-2.7.3-.8.7-1.7 1-2.4.2 0 .3.1.4.1h.8c.1 0 .3-.1.4-.1.4 1.2.9 2.3 1.3 3.6.5 1.3 1 2.6 1.4 3.8.5 1.3 1 2.4 1.4 3.5.5 1.2 1 2.2 1.4 2.9m-7-9.9c-.3.8-.7 1.6-1 2.3-.3.8-.6 1.6-.9 2.3h3.7c-.3-.8-.6-1.6-.8-2.3-.5-.7-.7-1.6-1-2.3M288.8 80.4c0-.8-.1-1.8-.1-2.6.3 0 .5.1.8.1h1.8s.5-.1.8-.1c-.1.8-.1 1.8-.2 2.6 0 .8-.1 1.8-.1 2.9V90c.8 0 1.5 0 2.3-.1.8 0 1.5-.1 2.3-.2 0 .2-.1.3-.1.4v1c0 .1 0 .3.1.3H288.7c.1-.8.1-1.7.1-2.5v-5.6-2.9M302.7 78.8c-.6 0-1.1.2-1.5.5s-.6.8-.6 1.3.2.9.4 1.2c.3.3.7.6 1.1.8.4.2.9.5 1.4.7.5.3 1 .5 1.4.8.4.3.8.8 1.1 1.3.3.5.4 1.1.4 1.8s-.2 1.3-.4 1.8c-.3.6-.6 1-1.1 1.4-.5.4-1 .7-1.7.9-.7.2-1.3.3-2.2.3-.8 0-1.3-.1-1.9-.3s-1-.3-1.3-.6c.2-.5.3-.9.3-1.3.1-.4.2-.8.3-1.3h.4c.1.2.2.6.3.8.2.3.3.5.6.7.3.2.5.3.8.5.3.1.7.2 1.1.2.8 0 1.4-.2 1.8-.6.4-.4.6-.8.6-1.4 0-.5-.2-.9-.4-1.3-.2-.3-.7-.6-1.1-.8s-.9-.5-1.4-.8-1-.5-1.4-.8c-.4-.3-.8-.8-1.1-1.3-.2-.5-.4-1.1-.4-1.8s.1-1.3.3-1.8c.3-.5.6-1 1-1.3.4-.3.9-.7 1.4-.8.5-.2 1.1-.2 1.7-.2.8 0 1.3.1 1.8.2.5.2 1 .4 1.4.8-.1.3-.3.6-.3.9-.1.3-.2.7-.3 1.1h-.2c-.4-1-1.2-1.6-2.3-1.6"/><path class="st2" d="M190.1 2.5c.3 1 .7 1.9 1 2.8.3.9.6 1.8.8 2.8h1.2c.1-.4.3-.8.4-1.4.2-.5.3-1.1.5-1.6s.3-1.1.5-1.6.3-1 .5-1.5c.2-.4.2-.8.4-1.2.1-.3.2-.6.3-.7h-.6c-.2 0-.3 0-.5-.1-.1.3-.2.6-.3 1-.2.4-.3.9-.4 1.5s-.3 1.1-.5 1.7c-.2.6-.3 1.1-.5 1.6-.1-.2-.2-.6-.3-.9-.1-.3-.2-.7-.3-1.1-.2-.4-.3-.8-.4-1.2-.2-.4-.3-.8-.3-1.1s-.3-.7-.3-.9c-.1-.3-.2-.5-.2-.7h-1.2c-.1.3-.2.7-.3 1.1-.2.5-.3 1-.5 1.5-.2.6-.4 1.1-.6 1.7-.2.6-.4 1.1-.6 1.6-.1-.4-.3-.8-.3-1.3-.2-.5-.3-1-.4-1.5s-.3-1-.4-1.5c-.2-.5-.3-1-.3-1.5h-2c0 .1.1.3.2.6s.3.7.3 1.3c.2.5.3 1 .5 1.6s.3 1.2.5 1.7c.2.6.3 1.1.4 1.6.2.5.3.9.3 1.3h1.2c.1-.4.3-.8.4-1.3.2-.5.3-1 .5-1.5s.3-1 .5-1.5c.5-.5.6-.9.8-1.3M204 8.2h-2c-.1-.4-.3-.8-.4-1.2-.2-.4-.2-.8-.4-1.2h-2.7c-.2.4-.3.8-.4 1.2-.2.4-.3.7-.3 1.2h-1.1c.1-.2.3-.5.3-.8.2-.3.3-.8.5-1.2.2-.4.4-.9.6-1.4.3-.5.4-1 .7-1.6.3-.5.4-1 .7-1.6.2-.5.4-1 .6-1.4h1.2c.3.7.5 1.3.8 2.1.3.8.6 1.5.8 2.2.3.8.6 1.4.8 2.1-.2.6.1 1.2.3 1.6m-4.1-5.8c-.2.5-.4.9-.6 1.3-.2.4-.3.9-.5 1.4h2.1c-.2-.5-.3-.9-.5-1.4-.1-.4-.3-.9-.5-1.3M209.7 1.8h.2c.1-.3.2-.5.2-.7.1-.2.1-.3.2-.5-.3-.2-.5-.3-.8-.4-.5-.1-.8-.2-1.2-.2-.3 0-.7.1-1 .2-.3.1-.6.2-.8.5-.3.2-.4.5-.6.7-.2.3-.3.7-.3 1.1s.1.8.3 1.1c.2.3.4.5.7.8.3.2.5.3.8.5.3.2.6.3.8.4s.5.3.7.5c.2.2.2.4.2.8 0 .3-.1.6-.3.8-.3.3-.6.3-1 .3-.3 0-.4 0-.7-.1-.2-.1-.3-.2-.5-.3-.2-.1-.2-.3-.3-.4s-.2-.3-.2-.5h-.3c0 .3-.1.5-.2.8-.1.3-.1.5-.2.7.2.2.4.3.8.3s.7.2 1.1.2c.5 0 .9-.1 1.3-.2.3-.1.7-.3 1-.5.3-.3.5-.5.6-.8.2-.3.3-.7.3-1.1 0-.4-.1-.8-.3-1.1-.2-.3-.4-.5-.7-.8-.3-.2-.6-.3-.8-.5-.3-.2-.6-.3-.8-.4-.2-.2-.5-.3-.7-.5s-.3-.4-.3-.7.1-.5.3-.8.5-.3.8-.3c.9.1 1.4.4 1.7 1.1M218.3 4.3v2.4c0 .5 0 1-.1 1.5H220c0-.5-.1-1-.1-1.5V3.4 1.7c0-.5 0-1 .1-1.5H218.2c0 .5.1 1 .1 1.5v1.7h-3.5V1.7s0-1 .1-1.5H213.1c0 .5.1 1 .1 1.5v5c0 .5 0 1-.1 1.5H214.9c0-.5-.1-1-.1-1.5V4.3h3.5M223.2 3.4v3.3c0 .5 0 1-.1 1.5H224.9c0-.5-.1-1-.1-1.5V3.4 1.7c0-.5 0-1 .1-1.5H223.1c0 .5.1 1 .1 1.5v1.7M228.2 2.5v1.8s-.1 1.3-.1 1.8c0 .6-.1 1-.1 1.4 0 .4-.1.6-.1.7h1v-.3-.6-.8V3.9v-.7-.7c1.7 1.8 3.5 3.8 5.1 5.6h.9V6.8 5.2 3.7s0-1 .1-1.6c0-.6.1-1.2.1-1.9-.3 0-.4.1-.5.1-.2 0-.3 0-.5-.1v5.4c-.8-.9-1.7-1.8-2.5-2.8S229.9 1 229.1 0c-.2 0-.4.1-.5.1-.2 0-.3 0-.5-.1v1c.1.6.1 1 .1 1.5M244.8 1.9h.2c0-.2.1-.4.2-.6.1-.2.1-.4.2-.6-.4-.3-.8-.4-1.3-.5-.4-.1-.9-.2-1.5-.2-.7 0-1.3.1-1.9.3-.6.2-1.1.5-1.5.8s-.8.8-1 1.4c-.3.6-.3 1.2-.3 1.9 0 .6.1 1.2.3 1.6.2.5.6.9.9 1.3.4.3.9.6 1.4.7.6.2 1.2.3 1.8.3.5 0 1-.1 1.6-.2.5-.1 1-.2 1.6-.3v-.3-.9V6v-.6-.5-.3h-1.8c0 .1 0 .3.1.6V7.4c-.1 0-.1.1-.2.1s-.3.1-.3.1h-.6c-.4 0-.8-.1-1.2-.3s-.7-.4-.9-.7c-.2-.3-.4-.7-.6-1-.2-.4-.2-.8-.2-1.3 0-.6.1-1.2.3-1.6.2-.4.4-.8.7-1.2.3-.3.6-.5.9-.7.3-.2.7-.3 1.1-.3.5 0 1 .1 1.3.3s.4.8.7 1.1M249.5 2.1v4.6c0 .5 0 1-.1 1.5H251.2c0-.5-.1-1-.1-1.5V1.5v-.3V1h.9c.2 0 .4 0 .6.1.2 0 .3 0 .5.1V.9.6.3 0h-6.2v1.2c.2 0 .3-.1.6-.1.2 0 .4 0 .6-.1h1v.4c.4.3.4.5.4.7M254.6 4.3c0 .8.1 1.3.3 1.8.3.5.6.9.9 1.3.4.3.8.6 1.4.7.5.2 1.1.3 1.8.3s1.3-.1 1.8-.3c.5-.2 1-.5 1.4-.8.4-.3.7-.8.9-1.3.3-.5.3-1 .3-1.6 0-.7-.1-1.3-.3-1.8-.3-.5-.5-.9-.9-1.2-.4-.3-.8-.6-1.4-.8-.5-.2-1.1-.2-1.8-.2s-1.3.1-1.8.3c-.6.3-1 .5-1.4.9-.4.4-.7.8-.9 1.3-.1.2-.3.8-.3 1.4m6.9-.4c0 .7-.1 1.2-.3 1.7s-.3.8-.6 1.2c-.3.3-.5.5-.8.7-.3.2-.7.2-1 .2-.3 0-.7-.1-.9-.2-.3-.1-.6-.3-.7-.6-.3-.3-.4-.6-.5-1-.2-.4-.2-.9-.2-1.6 0-.5.1-.9.2-1.4.1-.4.3-.8.5-1.2.2-.3.5-.6.8-.8.3-.2.7-.3 1.1-.3.3 0 .8.1 1 .3.3.2.6.3.8.7.2.2.4.6.5 1 .1.4.1.8.1 1.3M266 2.5v1.8s-.1 1.3-.1 1.8c0 .6-.1 1-.1 1.4 0 .4-.1.6-.1.7h1.1v-.3-.6-.8V3.9v-.7-.7c1.8 1.8 3.5 3.8 5.1 5.6h.9V6.8 5.2 3.7s0-1 .1-1.6c0-.6.1-1.2.1-1.9-.2 0-.4.1-.5.1-.2 0-.3 0-.5-.1v5.4c-.8-.9-1.7-1.8-2.5-2.8S267.8 1 267 0c-.3 0-.4.1-.5.1-.2 0-.3 0-.5-.1v2.5M275.2 10.3l.2.1c.5-.7.8-1.2 1.2-1.6.3-.4.5-.7.7-.9.2-.3.3-.3.3-.4 0-.1.1-.2.1-.3 0-.1 0-.3-.1-.3-.1-.1-.1-.2-.2-.2-.1-.1-.2-.1-.2-.2-.1 0-.2-.1-.3-.1-.2 0-.3 0-.4.1-.1.1-.3.3-.3.5-.1.3-.2.7-.3 1.2-.3.5-.5 1.2-.7 2.1M284.5 3.4v3.3c0 .5 0 1-.1 1.5h3.5s1.1-.1 1.6-.3.9-.5 1.3-.8c.3-.3.7-.8.8-1.3.3-.5.3-1.1.3-1.8 0-.8-.1-1.3-.3-1.8-.2-.5-.5-.8-.9-1.2-.4-.3-.8-.5-1.4-.6-.6-.1-1.2-.2-1.8-.2h-3c0 .5.1 1 .1 1.5s-.1 1.1-.1 1.7m1.8 1.9V1.9v-.7-.3h1.2c.4 0 .8.1 1.1.3s.6.3.8.6c.3.2.4.6.5 1 .1.4.1.8.1 1.2 0 1.2-.3 2.1-.8 2.7s-1.2.9-2.1.9h-1v-.3-1.5l.2-.5zM293.7 7.4c0 .2.1.5.3.7.2.2.4.3.7.3.2 0 .5-.1.7-.3.2-.2.3-.4.3-.7 0-.3-.1-.5-.3-.7s-.4-.3-.7-.3c-.3 0-.5.1-.7.3-.2.2-.3.5-.3.7M306.4 7.4c0 .2.1.5.3.7.2.2.4.3.7.3.3 0 .5-.1.7-.3.2-.2.3-.4.3-.7 0-.3-.1-.5-.3-.7-.2-.2-.4-.3-.7-.3-.2 0-.5.1-.7.3-.1.2-.3.5-.3.7M304.6 6.8l-.2-.1c-.1.2-.3.3-.4.3-.2.1-.3.2-.5.3-.2.1-.3.2-.6.2-.2.1-.4.1-.6.1-.3 0-.7-.1-1-.2-.3-.1-.6-.3-.9-.6-.2-.2-.5-.6-.7-1-.2-.4-.3-.9-.3-1.5s.1-1.2.3-1.6.3-.8.6-1.1c.3-.3.5-.5.8-.7.3-.2.6-.2.9-.2.4 0 .7.1 1.1.3s.6.4.9.8h.2c0-.2.1-.4.1-.6.1-.2.1-.4.2-.6-.2-.1-.3-.2-.5-.3-.2-.1-.4-.2-.6-.2-.2-.1-.4-.1-.7-.1s-.4-.1-.7-.1c-.6 0-1.2.1-1.8.2-.6.2-1.1.4-1.5.8s-.8.8-1 1.3c-.2.6-.4 1.2-.4 2 0 .6.1 1.1.3 1.5.2.5.5.9.8 1.2.3.3.8.6 1.3.8.5.2 1.2.3 1.8.3.9 0 1.8-.2 2.3-.5 0-.2.1-.3.1-.5.6.2.7 0 .7-.2"/><path class="st0" d="M52.3 19.2H0v71.9h56.3V19.2h-4z"/><path class="st3" d="M2.7 21.8h50.7v66.6H2.7V21.8z"/><path class="st1" d="M3.9 23h48.3v64.2H3.9V23z"/><path class="st4" d="M5.3 24.3H51v61.8H5.3V24.3z"/><path class="st3" d="M49.9 84.8l-10-6.4c.2-.2.3-.5.3-.8h9.7v-1h-9.3c.1-.3.1-.7.1-1l9.3-6v-1.3l-9.3 6 .2-7.2.1-.1s1.5-1.4 1.6-1.6c.5-1 .8-5.7.8-5.7s.1-1.9-.7-2.3c-.7-.3-1.6-.1-2.4.4 1.5-2.2 2.3-4.7 2.3-7.5V33.7h.9c0 1.2.1 15.8.1 16.8.8 9.3 6.3 9.6 6.3 9.6V28.5c0-.8-1.8-3-4-3H10.3c-2.3 0-4.1 2.3-4.1 3.1v31.2s6-.7 6.3-9.4c.1-.9.1-15.5.1-16.7h.9v16.8c0 2.6.7 5 2.1 7-.5-.2-1-.2-1.4.1-.8.3-.7 2.2-.7 2.2s.5 4.6 1 5.7c.1.2 1.3 1.6 1.3 1.6l.1.1.2 7.6-9.9-6.4v1.3l10 6.4c0 .2.1.3.1.5h-10v1h10.3c.1.2.1.3.2.5L6.3 84.8v1.3l11-7.2c2.4 4.4 8.2 7.9 8.8 8.2.1 0 1.3.6 2.4.6 1.1 0 2.3-.6 2.3-.6.7-.2 6.2-3.6 8.7-7.8L50 86.1l-.1-1.3zm-28.4-22c.8.3 1.6.7 2.4.9l-1.2.2c-.3-.3-.7-.6-1.2-1.1m12.7 1l-1.7-.2c1.3-.4 2.5-.9 3.7-1.7-.8.9-1.4 1.6-2 1.9"/><path class="st4" d="M26.2 40.8c0 1.8-.8 3.3-1.8 3.3s-1.7-1.5-1.7-3.3c0-1.8.8-3.3 1.7-3.3 1-.1 1.8 1.4 1.8 3.3M34.8 40.8c0 1.8-.8 3.3-1.7 3.3-1 0-1.8-1.5-1.8-3.3 0-1.8.8-3.3 1.8-3.3 1-.1 1.7 1.5 1.7 3.3"/><path class="st3" d="M24.5 39.7c0 .4-.3.8-.5.8s-.5-.3-.5-.8c0-.4.3-.8.5-.8s.5.4.5.8M33.3 39.7c0 .4-.2.8-.5.8s-.5-.3-.5-.8c0-.4.3-.8.5-.8.3-.1.5.4.5.8"/><path class="st4" d="M26.7 72c0 .9-.7 1.6-1.6 1.6-.9 0-1.6-.8-1.6-1.6 0-.9.8-1.6 1.6-1.6.9 0 1.6.8 1.6 1.6M33.7 72.1c0 .9-.8 1.6-1.6 1.6-.9 0-1.6-.8-1.6-1.6 0-.9.8-1.6 1.6-1.6.8-.1 1.6.7 1.6 1.6"/><path class="st3" d="M24.8 71.6c0 .3-.2.4-.3.4-.2 0-.3-.2-.3-.4s.2-.4.3-.4c.2-.1.3.1.3.4M31.6 71.5c0 .3-.2.4-.3.4s-.3-.2-.3-.4.2-.4.3-.4c.2-.1.3.2.3.4"/><path class="st1" d="M33 58.1l-.3-.2-.3.1-3.3 2.3V56c1.1-.8 3.8-2.8 3.8-3.6 0-1-1.9-1.8-4.3-1.8s-4.3.8-4.3 1.8c0 .8 2.8 2.8 3.8 3.6v4.3L24.8 58h-.2l-.3.2-.1.3.2.2 3.8 2.7.3.1.1-.1.1.1.3-.1 3.9-2.7.2-.2-.1-.4z"/><path class="st4" d="M43.7 58.7c-.2-.7-.4-1.2-.8-1.4-1.1-.5-2.3-.1-3.7 1.1-.7.5-1.3 1.2-2.2 2.2.2-.2-1.3 1.5-1.7 1.8-.9.8-.5.5-1.3 1.1-.7-.1-1.2-.2-1.7-.2-.8-.2-1.8-.2-2.6-.3-2.1-.2-1.7-.1-7 .5-.7-.6-.2-.3-1.2-1.1-.3-.3-1.8-2-1.7-1.8-.8-.9-1.5-1.6-2.2-2.1-1.4-1.2-2.6-1.6-3.7-1.1-.5.3-.8.8-.8 1.4-.1.4-.1.8-.1 1.2v.1c0 .2.1.5.1.9.1.7.2 1.3.3 2 .3 1.4.4 2.4.7 2.8.1.1.3.3.7.8.3.3.5.6.7.8l.2 8c.1 2.8 1.9 5.5 4.8 8.3 1.9 1.7 4.5 3.5 5.3 3.8h.2c-.1 0 .3.2.8.3.4.2.9.3 1.3.3h.7c.5 0 .9-.2 1.4-.3.3-.1.6-.3.8-.3.8-.3 3.4-2.1 5.3-3.8 2.9-2.7 4.8-5.5 4.8-8.3l.3-8c.2-.1.1-.1.3-.3l.5-.5c.5-.5.8-.8.8-.9.3-.4.4-1.4.6-2.8.1-.7.2-1.3.2-2 0-.4.1-.8.1-.9v-.1c-.1-.4-.1-.8-.2-1.2m-.7 1.2c0 .2 0 .5-.1.9-.1.7-.1 1.3-.2 2-.2 1.3-.3 2.3-.5 2.6l-.7.7-.5.5-.3.3-.2.2v.2l-.3 8.2c-.1 2.5-1.8 5.1-4.6 7.7-1.8 1.7-4.3 3.3-5.1 3.7-.2.1-.4.2-.7.3-.4.2-.8.3-1.3.3h-.6c-.3 0-.7-.2-1.1-.3-.4-.2-.2-.1-.8-.3-.8-.3-3.3-2-5.1-3.7-2.7-2.5-4.5-5.2-4.6-7.7l-.2-8.2V67c-.2-.2-.1-.1-.3-.2-.1-.1-.3-.4-.6-.7-.3-.3-.6-.7-.6-.7-.2-.3-.4-1.3-.6-2.6-.1-.7-.2-1.3-.3-2 .3-.5.3-.2.3-.8 0-.3 0-.7.1-1 .1-.4.3-.8.4-.8.7-.3 1.7 0 2.8.9.6.5 1.3 1.2 2.1 2.1-.2-.2 1.3 1.5 1.7 1.8.5.5.9.9 1.3 1.2-.5.3-1 .5-1.5.9-.1.1-.1.2-.2.2l.1.3.3.2c.4-.1.3-.2.8-.4.4-.3.8-.5 1.3-.7.8-.3 1.6-.5 2.4-.7l2.3-.2h1.3l3.1.3c.7.2 1.4.3 2.2.6.5.2.9.4 1.4.7.2.1.3.3.4.3.1.1.2.1.3.1l.3-.2.1-.3c-.1-.1-.1-.2-.2-.3l-.3-.3c-.3-.2-.7-.4-1-.6-.2-.1-.3-.2-.5-.2.3-.3.7-.6 1.1-1 .3-.4 1.8-2 1.7-1.8.8-.9 1.5-1.6 2.1-2.1 1.2-1 2.1-1.3 2.8-.9.2.1.3.3.4.8-.2.3-.1.6-.1 1"/><path class="st1" d="M31.5 82.9l-.2-.2-.3.1-2 1.5-.1-2.3c.6-.5 1.8-1.7 1.9-2 .2-.8-.8-.9-2.3-.9-1.4 0-2.3 0-2.2.9 0 .3 1.3 1.3 1.9 1.9l.1 2.4-2.2-1.3H26l-.2.2v.3l.2.2 2.5 1.5h.2l.1.1.3-.1 2.5-1.7.2-.2-.3-.4z"/></svg>